<svg xmlns="http://www.w3.org/2000/svg" xmlns:xlink="http://www.w3.org/1999/xlink" width="128.223" height="91.504" viewBox="0 0 128.223 91.504"><defs><linearGradient id="a" x1="1" y1="0.5" x2="0" y2="0.5" gradientUnits="objectBoundingBox"><stop offset="0" stop-color="#0c7a91"/><stop offset="1" stop-color="#063d49"/></linearGradient><linearGradient id="b" x1="0.954" y1="0.494" x2="0.003" y2="0.486" gradientUnits="objectBoundingBox"><stop offset="0" stop-color="#ffcd00"/><stop offset="1" stop-color="#ffcd00"/></linearGradient></defs><g transform="translate(-1091.094 -257)"><rect width="86.03" height="34" rx="15" transform="translate(1189.872 348.504) rotate(-120)" fill="url(#a)"/><path d="M40,0H61.321a0,0,0,0,1,0,0V38.695a16,16,0,0,1-16,16H0a0,0,0,0,1,0,0V40A40,40,0,0,1,40,0Z" transform="translate(1212.321 316.892) rotate(180)" fill="#fc0"/><rect width="81.03" height="34" rx="17" transform="matrix(-0.53, -0.848, 0.848, -0.53, 1134.033, 344.284)" fill="url(#b)"/><rect width="86.03" height="34" rx="15" transform="translate(1189.872 348.504) rotate(-120)" opacity="0.4" fill="url(#a)"/><rect width="81.03" height="34" rx="17" transform="matrix(-0.53, 0.848, -0.848, -0.53, 1188.223, 275.567)" fill="url(#a)"/><rect width="81.03" height="34" rx="17" transform="matrix(-0.53, -0.848, 0.848, -0.53, 1134.033, 344.284)" opacity="0.4" fill="url(#b)"/><rect width="81.03" height="34" rx="15" transform="translate(1093.454 343.227) rotate(-90)" fill="url(#a)"/><rect width="81.03" height="34" rx="15" transform="translate(1151 343.227) rotate(-90)" fill="url(#a)"/></g></svg>