<svg xmlns="http://www.w3.org/2000/svg" xmlns:xlink="http://www.w3.org/1999/xlink" width="559.88" height="151.725" viewBox="0 0 559.88 151.725">
  <defs>
    <linearGradient id="linear-gradient" x1="0.5" y1="0.585" x2="0.5" y2="1" gradientUnits="objectBoundingBox">
      <stop offset="0" stop-color="#fb0000"/>
      <stop offset="1" stop-color="#c80000"/>
    </linearGradient>
    <linearGradient id="linear-gradient-2" y1="0.322" x2="1" y2="0.337" gradientUnits="objectBoundingBox">
      <stop offset="0" stop-color="#ff4369"/>
      <stop offset="1" stop-color="#c12c4a"/>
    </linearGradient>
  </defs>
  <g id="Group_19" data-name="Group 19" transform="translate(-119 -308.275)">
    <path id="Path_122" data-name="Path 122" d="M23.68.64Q14.64.64,9.4-3.44A13.093,13.093,0,0,1,4.16-14.32V-16.8a.707.707,0,0,1,.8-.8H8.88a.707.707,0,0,1,.8.8v2.16a8.869,8.869,0,0,0,3.84,7.48q3.84,2.84,10.64,2.84,6.16,0,9.36-2.6a8.466,8.466,0,0,0,3.2-6.92,7.844,7.844,0,0,0-1.48-4.8,14.549,14.549,0,0,0-4.56-3.76A80.049,80.049,0,0,0,22-26.48a92.745,92.745,0,0,1-9.32-4.2,15.67,15.67,0,0,1-5.36-4.64,11.964,11.964,0,0,1-2.04-7.16q0-6.72,4.68-10.44T22.8-56.64q8.88,0,14,4.16a13.513,13.513,0,0,1,5.12,11.04v1.76a.707.707,0,0,1-.8.8h-4a.707.707,0,0,1-.8-.8v-1.44a9.358,9.358,0,0,0-3.64-7.6q-3.64-2.96-10.12-2.96-5.68,0-8.72,2.32a7.94,7.94,0,0,0-3.04,6.72,7.46,7.46,0,0,0,1.48,4.76,12.447,12.447,0,0,0,4.24,3.28q2.76,1.4,8.52,3.64a77.558,77.558,0,0,1,9.4,4.48A18.739,18.739,0,0,1,40.2-21.4a12.038,12.038,0,0,1,2.2,7.32A13.063,13.063,0,0,1,37.44-3.36Q32.48.64,23.68.64ZM90.32-56a.707.707,0,0,1,.8.8v3.44a.707.707,0,0,1-.8.8H74.64a.283.283,0,0,0-.32.32V-.8a.707.707,0,0,1-.8.8H69.44a.707.707,0,0,1-.8-.8V-50.64a.283.283,0,0,0-.32-.32H53.28a.707.707,0,0,1-.8-.8V-55.2a.707.707,0,0,1,.8-.8ZM124.48.64a21.242,21.242,0,0,1-9.92-2.24,16.434,16.434,0,0,1-6.72-6.28,18.056,18.056,0,0,1-2.4-9.4V-55.2a.707.707,0,0,1,.8-.8h4.08a.707.707,0,0,1,.8.8v38.08a12.282,12.282,0,0,0,3.68,9.24,13.334,13.334,0,0,0,9.68,3.56,13.334,13.334,0,0,0,9.68-3.56,12.283,12.283,0,0,0,3.68-9.24V-55.2a.707.707,0,0,1,.8-.8h4.08a.707.707,0,0,1,.8.8v37.92a18.3,18.3,0,0,1-2.36,9.4,16.167,16.167,0,0,1-6.68,6.28A21.422,21.422,0,0,1,124.48.64ZM162.72,0a.707.707,0,0,1-.8-.8V-55.2a.707.707,0,0,1,.8-.8H181.6q7.92,0,12.6,4.16t4.68,11.28v25.12q0,7.12-4.68,11.28T181.6,0Zm4.88-5.28a.283.283,0,0,0,.32.32h13.92A11.272,11.272,0,0,0,190.12-8a10.947,10.947,0,0,0,3.08-8.16v-23.6A11.134,11.134,0,0,0,190.16-48a11.243,11.243,0,0,0-8.32-3.04H167.92a.283.283,0,0,0-.32.32ZM216.16,0a.707.707,0,0,1-.8-.8V-55.2a.707.707,0,0,1,.8-.8h4.08a.707.707,0,0,1,.8.8V-.8a.707.707,0,0,1-.8.8Zm41.2.64a20.814,20.814,0,0,1-10-2.32,16.389,16.389,0,0,1-6.68-6.52,19.506,19.506,0,0,1-2.36-9.72V-38.08a19.506,19.506,0,0,1,2.36-9.72,16.389,16.389,0,0,1,6.68-6.52,20.814,20.814,0,0,1,10-2.32,21.051,21.051,0,0,1,10.04,2.32,16.328,16.328,0,0,1,6.72,6.52,19.506,19.506,0,0,1,2.36,9.72v20.16a19.506,19.506,0,0,1-2.36,9.72,16.328,16.328,0,0,1-6.72,6.52A21.05,21.05,0,0,1,257.36.64Zm0-4.88a13.193,13.193,0,0,0,9.76-3.68,13.193,13.193,0,0,0,3.68-9.76V-38.16a13.329,13.329,0,0,0-3.68-9.8,13.114,13.114,0,0,0-9.76-3.72,13.011,13.011,0,0,0-9.68,3.72,13.329,13.329,0,0,0-3.68,9.8v20.48a13.193,13.193,0,0,0,3.68,9.76A13.088,13.088,0,0,0,257.36-4.24ZM321.92,0a1.133,1.133,0,0,1-1.12-.72l-10-22.16a.513.513,0,0,0-.48-.32h-7.44a.354.354,0,0,0-.4.4V-.96a.926.926,0,0,1-.28.68.926.926,0,0,1-.68.28h-9.36a.926.926,0,0,1-.68-.28.926.926,0,0,1-.28-.68V-55.04a.926.926,0,0,1,.28-.68.926.926,0,0,1,.68-.28h22.88a18.762,18.762,0,0,1,9,2.08,14.583,14.583,0,0,1,6,5.92,18.073,18.073,0,0,1,2.12,8.88,15.822,15.822,0,0,1-2.72,9.32,14.484,14.484,0,0,1-7.6,5.48.381.381,0,0,0-.24.56L332.48-1.12a1.228,1.228,0,0,1,.16.48q0,.64-.88.64ZM302.88-46.32a.354.354,0,0,0-.4.4v13.68a.354.354,0,0,0,.4.4h10.48a7.662,7.662,0,0,0,5.48-2,6.823,6.823,0,0,0,2.12-5.2,6.952,6.952,0,0,0-2.12-5.24,7.575,7.575,0,0,0-5.48-2.04ZM349.36,0q-1.2,0-.8-1.12l17.36-44.72q.16-.48-.32-.48H350.64a.354.354,0,0,0-.4.4v3.68a.926.926,0,0,1-.28.68.926.926,0,0,1-.68.28H342a.926.926,0,0,1-.68-.28.926.926,0,0,1-.28-.68l.08-12.8a.926.926,0,0,1,.28-.68.926.926,0,0,1,.68-.28h34.96a.926.926,0,0,1,.68.28.926.926,0,0,1,.28.68v8.08a3.948,3.948,0,0,1-.24,1.2L360.48-.72a1.048,1.048,0,0,1-1.12.72Zm71.92-26.72a21.1,21.1,0,0,1,1.6,8.48,21.764,21.764,0,0,1-1.44,8,15.8,15.8,0,0,1-6.44,8A19.448,19.448,0,0,1,404.32.64,18.923,18.923,0,0,1,393.64-2.4a16.912,16.912,0,0,1-6.6-8.24,22.772,22.772,0,0,1-1.28-6.72.849.849,0,0,1,.96-.96h9.44a.849.849,0,0,1,.96.96,14.858,14.858,0,0,0,.88,3.92,6.407,6.407,0,0,0,2.36,3.24,6.545,6.545,0,0,0,3.88,1.16,6.141,6.141,0,0,0,6.16-3.92,13.118,13.118,0,0,0,1.12-5.6,13.772,13.772,0,0,0-1.2-6.16,6.347,6.347,0,0,0-6.16-3.76,3.867,3.867,0,0,0-1.84.52A24.052,24.052,0,0,0,400-26.48a1.064,1.064,0,0,1-.64.24.769.769,0,0,1-.72-.48l-4.72-6.64a.986.986,0,0,1-.16-.56,1.085,1.085,0,0,1,.32-.8L406.8-45.84a.332.332,0,0,0,.12-.32q-.04-.16-.28-.16h-18.8a.926.926,0,0,1-.68-.28.926.926,0,0,1-.28-.68v-7.76a.926.926,0,0,1,.28-.68.926.926,0,0,1,.68-.28H421.2a.926.926,0,0,1,.68.28.926.926,0,0,1,.28.68v8.8a1.682,1.682,0,0,1-.56,1.2l-10.48,9.6a.332.332,0,0,0-.12.32q.04.16.36.16A13.072,13.072,0,0,1,421.28-26.72Z" transform="translate(256 416)" fill="#fff"/>
    <g id="Group_18" data-name="Group 18" transform="translate(-41 -53.725)">
      <g id="Group_17" data-name="Group 17" transform="translate(-300 -209.516)">
        <path id="Subtraction_3" data-name="Subtraction 3" d="M19.714,133H10A10.011,10.011,0,0,1,0,123V10A10.011,10.011,0,0,1,10,0H38V74.3a98.024,98.024,0,0,0-18.3,57.285c0,.467,0,.943.01,1.414Z" transform="translate(460 590)" fill="url(#linear-gradient)"/>
        <path id="Path_101" data-name="Path 101" d="M4213,305.309l-68.866-131.842v73.814s13.994,36.025,20.254,47.841,15.468,10.186,15.468,10.186Z" transform="translate(-3646 417.856)" fill="#ffc400"/>
        <path id="Subtraction_2" data-name="Subtraction 2" d="M0,92.267V10A10.011,10.011,0,0,1,10,0H58.865a10.011,10.011,0,0,1,10,10V53.5A98.565,98.565,0,0,0,0,92.265Z" transform="translate(498.134 571.516)" fill="url(#linear-gradient-2)"/>
        <path id="Intersection_3" data-name="Intersection 3" d="M0,75.317V0L26.215,50.188A98.7,98.7,0,0,0,0,75.317l0,0Z" transform="translate(498.2 589.879)" fill="#f98d00"/>
      </g>
    </g>
  </g>
</svg>
